PathFileType	4	(X/Y/Z)	Walk1_0-155.trc
DataRate	CameraRate	NumFrames	NumMarkers	Units	OrigDataRate	OrigDataStartFrame	OrigNumFrames
30	30	5	22	m	30	58	155
Frame#	Time	Hip			RHip			RKnee			RAnkle			RBigToe			RSmallToe			RHeel			LHip			LKnee			LAnkle			LBigToe			LSmallToe			LHeel			Neck			Head			Nose			RShoulder			RElbow			RWrist			LShoulder			LElbow			LWrist		
		X1	Y1	Z1	X2	Y2	Z2	X3	Y3	Z3	X4	Y4	Z4	X5	Y5	Z5	X6	Y6	Z6	X7	Y7	Z7	X8	Y8	Z8	X9	Y9	Z9	X10	Y10	Z10	X11	Y11	Z11	X12	Y12	Z12	X13	Y13	Z13	X14	Y14	Z14	X15	Y15	Z15	X16	Y16	Z16	X17	Y17	Z17	X18	Y18	Z18	X19	Y19	Z19	X20	Y20	Z20	X21	Y21	Z21	X22	Y22	Z22
59	1.9666666666666666	-1.4250865033804265	0.8635464737343865	0.34652689853987517	-1.420916435554693	0.8482108217989311	0.4493855631005629	-1.292134179931125	0.49915813178546337	0.48020805003094574	-1.654835355814625	0.2736519818224949	0.44936492840171105	-1.645461600192976	0.04377322408779395	0.4664337496213154	-1.6567747058022486	0.0821656426247568	0.5022669607266895	-1.7418886828576832	0.27362110190213396	0.441228697936352	-1.4162038996964548	0.8483497103663643	0.238353109466082	-1.3285246097905543	0.4913260940802725	0.264984380643974	-1.358476869745388	0.09956364532420192	0.28229605264625696	-1.1367852595732093	0.039118146868671606	0.29635598034032234	-1.1818661284106569	0.03288775297842433	0.2332105086367904	-1.39853879643624	0.02318078416336499	0.2937874349302045	-1.4650894479674754	1.5535324647615931	0.3227424955792541	-1.4402047733183017	1.7968073046087556	0.31212777656055934	-1.3190287380986094	1.6735323860082612	0.3363635322358446	-1.5007682409333158	1.4376321892668702	0.5125950614071262	-1.4298266301227012	1.1249631952903039	0.5797858692881066	-1.3743792961038483	0.8639108863000041	0.6115458103871801	-1.5132775297657093	1.4305543718363993	0.1122870541177685	-1.4624868778366655	1.109076939427272	0.11179434886297367	-1.3896368416317466	0.8651442485845474	0.07893903824707144
60	2.0	-1.3946857498283234	0.8770597287615337	0.3445982283506317	-1.3849783951153793	0.865262576580256	0.4526156412169903	-1.2232707376935135	0.525516325134542	0.47484982556229144	-1.5664282745929858	0.27912538473807846	0.45024768234666684	-1.483228087281481	0.04001203722752884	0.4924018696984303	-1.5101501560917374	0.0614749187956283	0.5373799383198152	-1.6499022178947746	0.2709498675085601	0.44813576987226966	-1.3965954438017527	0.8613767892914064	0.23335297918948295	-1.3449820837028894	0.47793805022130437	0.24411318014568456	-1.3545138110362582	0.09543516691099507	0.29208132789854213	-1.1419175388688165	0.03684524956956065	0.2964473095409082	-1.1831876469237301	0.03444745652790323	0.23669571848791496	-1.3979462965342269	0.02594055956349166	0.29387804920132066	-1.4288497148276482	1.5653887186205726	0.32185195708624004	-1.38411532369652	1.819064489077631	0.3343787281535164	-1.2812723104984656	1.6806813503856455	0.3341837964616827	-1.4677006368844965	1.4487002863842018	0.5083542310544384	-1.4059887795562358	1.1165586659253788	0.5893647665945259	-1.359352117717459	0.8701825432036826	0.6055520162810176	-1.4762617799703959	1.444770851975736	0.11478773900109121	-1.4195645767749785	1.1236239622525492	0.1018106456444911	-1.3310671381297678	0.8752983373281532	0.07502775767125194
61	2.033333333333333	-1.3652762354022363	0.8815349328002788	0.3377764128677025	-1.3497840603460065	0.8545143234932578	0.44727607804447356	-1.1528179410668238	0.5488620582250039	0.4620180064372105	-1.4643952650287804	0.27591044478929627	0.4466209949650591	-1.3275524648992267	0.1368259779646284	0.48143279908578823	-1.3660267364830774	0.15054413263083904	0.5164115562781777	-1.5438640563135992	0.2514023628430108	0.44169451909796753	-1.362916009202625	0.853376444614028	0.23050170139452997	-1.324735897212249	0.4903589375380868	0.2545141877804293	-1.3570309876406805	0.10689871000942808	0.28594642508548096	-1.1324856091608546	0.04226223442722602	0.3050075051776877	-1.1759644288818218	0.038673311943573936	0.2388773650796638	-1.3976773127738655	0.032217661891281335	0.29339409819696416	-1.3957897356558249	1.5705741857125766	0.32150020929277195	-1.3470233664739852	1.8271696097401482	0.33916245077492485	-1.246999889519977	1.6888987550119368	0.32825745008966006	-1.4315742786801338	1.4543047619770806	0.5136666258603421	-1.3799780068914853	1.1192750508656533	0.5914596215299626	-1.3582215761524041	0.8770804889261765	0.606194996080964	-1.4346442879391943	1.4490073614583558	0.1139379410506888	-1.3546284131157622	1.1340030409695332	0.08877876352742643	-1.266525257262382	0.8969671808760182	0.07568463800740617
62	2.066666666666667	-1.331738767994962	0.8875574902448073	0.337169279747544	-1.310788294426027	0.8602876477065969	0.44867578335021036	-1.10319750228377	0.5648740339209889	0.45568376122802007	-1.3653909229746002	0.2560066095229297	0.4396250290343596	-1.2291046825684904	0.13499854174803852	0.4838284145219371	-1.2711882125118206	0.15014533140000236	0.5229334535943955	-1.432996565017	0.2210503762061636	0.43978739197330674	-1.3328235303972686	0.8551179265149768	0.23099050348205577	-1.3165102254832952	0.4868833672543476	0.2565758958950783	-1.3676461023528568	0.09662294590057681	0.27197265829054107	-1.1356299419486646	0.03786519461183016	0.304141338203685	-1.177166605226673	0.035970342469338945	0.2408956065520466	-1.4114247565260682	0.028889234970031465	0.2884878490957687	-1.361193052224505	1.5752739055000833	0.31858746671344484	-1.314474196523059	1.8305335897319828	0.33749274040652844	-1.2054900946777443	1.6912695587785525	0.3276659824083351	-1.4028268912296176	1.4576474244959003	0.5128332103992379	-1.3776170384062756	1.1472292795160532	0.5599173618157312	-1.3456850981443733	0.8860975362954316	0.60541128260482	-1.4017294272012921	1.4552449266467196	0.11174477727172343	-1.3100795542744905	1.1462465309004741	0.08449900667477714	-1.2120061148101073	0.9087522776220482	0.07323262138007393
63	2.1	-1.2978137932399325	0.8924250065526	0.3398084118662368	-1.2750356517550692	0.8657916853368282	0.45407655497896354	-1.0593862760259203	0.5770076815542852	0.449005576614818	-1.2771174072993918	0.21620044637225808	0.43468085317555194	-1.1383741878946134	0.09162332582320702	0.47097624738096533	-1.1861222348464384	0.10545558648047292	0.5167244983664463	-1.337867786210485	0.1709626526471992	0.43793388306615344	-1.3014335415351317	0.8586798083770886	0.2345989591578823	-1.2984251175235055	0.4916536179479556	0.25794879461722847	-1.3613490167513647	0.10092596511599199	0.2920875963377947	-1.1452286793879525	0.02873362248729506	0.29888142177550375	-1.1862198675998117	0.027946887838292633	0.23714471678832677	-1.4017017833060899	0.03264493424340016	0.29337803320922534	-1.3240302840842313	1.5754093618630087	0.31682669020903553	-1.2741214552164224	1.8304207430752555	0.3337850924386255	-1.1704539001409155	1.6896193108534563	0.3305356275067108	-1.3683609172000566	1.4576331258749036	0.5121654860629422	-1.3670302181489247	1.1476151038463518	0.5610220802411511	-1.3381106305248933	0.892204566848245	0.6030096985120843	-1.364416349463445	1.4564913938910218	0.11374415560671577	-1.2834127851235024	1.1375691647504753	0.07176497699651697	-1.1526202442341882	0.9193688914837055	0.07295661091525976
